<svg width="48" height="48" viewBox="0 0 48 48" fill="none" xmlns="http://www.w3.org/2000/svg">
<path d="M36.4007 48H0V11.5993C0 5.1932 5.1932 0 11.5993 0H48V36.4007C48 42.8068 42.8068 48 36.4007 48Z" fill="#DB5B44"/>
<path d="M31.32 24C31.32 28.065 28.0247 31.3604 23.9597 31.3604C19.8947 31.3604 16.5994 28.065 16.5994 24C16.5994 19.935 19.8947 16.6397 23.9597 16.6397C28.0247 16.6397 31.32 19.935 31.32 24Z" fill="#008080"/>
<path d="M5.40498 23.9992L12.1643 29.0472C19.1565 34.2698 28.9175 34.2587 35.9001 29.023L42.596 24.0009L35.8367 18.9525C28.8437 13.7303 19.0831 13.74 12.1014 18.9771L5.40498 23.9992ZM24.0155 33.8564C19.645 33.8564 15.275 32.4943 11.6251 29.7683L3.9021 24.0009L11.5615 18.2569C18.8605 12.7819 29.0643 12.7714 36.3759 18.2314L44.0989 23.9992L36.44 29.7431C32.7845 32.485 28.4 33.8564 24.0155 33.8564Z" fill="#FFA000"/>
<path d="M24.0016 5.40462L18.9536 12.1639C13.731 19.1566 13.7413 28.9166 18.9778 35.8994L23.9999 42.5956L29.0483 35.8363C34.2705 28.8437 34.2602 19.0831 29.0241 12.1005L24.0016 5.40462ZM24.0016 44.0985L18.2576 36.4393C12.7826 29.1397 12.7721 18.9354 18.2325 11.6247L23.9999 3.90174L29.7442 11.5606C35.2189 18.8602 35.2294 29.0645 29.7694 36.3755L24.0016 44.0985Z" fill="#FFA000"/>
<path d="M5.40498 23.9992L12.1643 29.0472C19.1565 34.2698 28.9175 34.2587 35.9001 29.023L42.596 24.0009L35.8367 18.9525C28.8437 13.7303 19.0831 13.74 12.1014 18.9771L5.40498 23.9992ZM24.0155 33.8564C19.645 33.8564 15.275 32.4943 11.6251 29.7683L3.9021 24.0009L11.5615 18.2569C18.8605 12.7819 29.0643 12.7714 36.3759 18.2314L44.0989 23.9992L36.44 29.7431C32.7845 32.485 28.4 33.8564 24.0155 33.8564Z" fill="#FFA000"/>
<path d="M24.0016 5.40462L18.9536 12.1639C13.731 19.1566 13.7413 28.9166 18.9778 35.8994L23.9999 42.5956L29.0483 35.8363C34.2705 28.8437 34.2602 19.0831 29.0241 12.1005L24.0016 5.40462ZM24.0016 44.0985L18.2576 36.4393C12.7826 29.1397 12.7721 18.9354 18.2325 11.6247L23.9999 3.90174L29.7442 11.5606C35.2189 18.8602 35.2294 29.0645 29.7694 36.3755L24.0016 44.0985Z" fill="#FFA000"/>
</svg>
