<svg width="100%" height="100%" preserveAspectRatio="none" viewBox="0 0 150 150" fill="none" xmlns="http://www.w3.org/2000/svg">
<circle cx="75" cy="75" r="75" fill="#00AD39"/>
<path fill-rule="evenodd" clip-rule="evenodd" d="M76.812 46.062C76.3314 46.5425 75.6796 46.8125 75 46.8125C74.3204 46.8125 73.6686 46.5425 73.188 46.062C72.7075 45.5814 72.4375 44.9296 72.4375 44.25V39.125C72.4375 38.4454 72.7075 37.7936 73.188 37.313C73.6686 36.8325 74.3204 36.5625 75 36.5625C75.6796 36.5625 76.3314 36.8325 76.812 37.313C77.2925 37.7936 77.5625 38.4454 77.5625 39.125V44.25C77.5625 44.9296 77.2925 45.5814 76.812 46.062ZM60.7554 58.1931C64.552 54.3965 69.6357 52.164 75 51.9376C77.6259 51.8653 80.2397 52.3202 82.6868 53.2752C85.1339 54.2303 87.3648 55.6663 89.2475 57.4982C91.2296 59.4484 92.8033 61.7739 93.8768 64.3389C94.9503 66.9039 95.5021 69.657 95.5 72.4376C95.5513 75.1535 95.0535 77.8518 94.0363 80.3705C93.0191 82.8893 91.5036 85.1765 89.5806 87.0951C88.3009 88.106 87.2523 89.3791 86.5054 90.8288C85.7584 92.2785 85.3304 93.8713 85.25 95.5001C85.25 96.1797 84.98 96.8315 84.4995 97.3121C84.0189 97.7926 83.3671 98.0626 82.6875 98.0626H67.3125C66.6329 98.0626 65.9811 97.7926 65.5005 97.3121C65.02 96.8315 64.75 96.1797 64.75 95.5001C64.6543 93.8619 64.2147 92.2623 63.4597 90.8053C62.7047 89.3483 61.6513 88.0667 60.3681 87.0439C56.6382 83.0906 54.5418 77.8726 54.5 72.4376C54.7264 67.0733 56.9589 61.9896 60.7554 58.1931ZM65.5005 101.376C65.9811 100.895 66.6329 100.625 67.3125 100.625H82.6875C83.3671 100.625 84.0189 100.895 84.4995 101.376C84.98 101.856 85.25 102.508 85.25 103.188C85.25 103.867 84.98 104.519 84.4995 104.999C84.0189 105.48 83.3671 105.75 82.6875 105.75H67.3125C66.6329 105.75 65.9811 105.48 65.5005 104.999C65.02 104.519 64.75 103.867 64.75 103.188C64.75 102.508 65.02 101.856 65.5005 101.376ZM69.875 108.312C69.1954 108.312 68.5436 108.582 68.063 109.063C67.5825 109.544 67.3125 110.195 67.3125 110.875C67.3125 111.555 67.5825 112.206 68.063 112.687C68.5436 113.168 69.1954 113.438 69.875 113.438H80.125C80.8046 113.438 81.4564 113.168 81.937 112.687C82.4175 112.206 82.6875 111.555 82.6875 110.875C82.6875 110.195 82.4175 109.544 81.937 109.063C81.4564 108.582 80.8046 108.312 80.125 108.312H69.875ZM46.8125 69.875H41.6875C41.0079 69.875 40.3561 70.145 39.8755 70.6255C39.395 71.1061 39.125 71.7579 39.125 72.4375C39.125 73.1171 39.395 73.7689 39.8755 74.2495C40.3561 74.73 41.0079 75 41.6875 75H46.8125C47.4921 75 48.1439 74.73 48.6245 74.2495C49.105 73.7689 49.375 73.1171 49.375 72.4375C49.375 71.7579 49.105 71.1061 48.6245 70.6255C48.1439 70.145 47.4921 69.875 46.8125 69.875ZM98.5622 46.3235C99.2392 46.3235 99.8886 46.5914 100.369 47.0686C100.846 47.5488 101.114 48.1982 101.114 48.8752C101.114 49.5522 100.846 50.2017 100.369 50.6818L96.7556 54.3205C96.5162 54.558 96.2322 54.7459 95.92 54.8734C95.6078 55.001 95.2735 55.0656 94.9362 55.0636C94.599 55.0656 94.2647 55.001 93.9525 54.8734C93.6403 54.7459 93.3563 54.558 93.1169 54.3205C92.8767 54.0823 92.6861 53.7989 92.556 53.4866C92.4259 53.1744 92.3589 52.8394 92.3589 52.5011C92.3589 52.1629 92.4259 51.8279 92.556 51.5157C92.6861 51.2034 92.8767 50.92 93.1169 50.6818L96.7556 47.0686C97.2357 46.5914 97.8852 46.3235 98.5622 46.3235ZM103.188 69.875H108.312C108.992 69.875 109.644 70.145 110.124 70.6255C110.605 71.1061 110.875 71.7579 110.875 72.4375C110.875 73.1171 110.605 73.7689 110.124 74.2495C109.644 74.73 108.992 75 108.312 75H103.188C102.508 75 101.856 74.73 101.376 74.2495C100.895 73.7689 100.625 73.1171 100.625 72.4375C100.625 71.7579 100.895 71.1061 101.376 70.6255C101.856 70.145 102.508 69.875 103.188 69.875ZM56.8831 54.3207C57.1233 54.0825 57.3139 53.7991 57.444 53.4868C57.5741 53.1745 57.6411 52.8396 57.6411 52.5013C57.6411 52.163 57.5741 51.8281 57.444 51.5158C57.3139 51.2036 57.1233 50.9202 56.8831 50.6819L53.2444 47.0688C52.7542 46.649 52.1236 46.4296 51.4787 46.4545C50.8338 46.4795 50.222 46.7468 49.7656 47.2032C49.3092 47.6595 49.0419 48.2713 49.017 48.9162C48.9921 49.5612 49.2114 50.1917 49.6312 50.6819L53.2444 54.3207C53.4838 54.5582 53.7678 54.7461 54.08 54.8736C54.3922 55.0011 54.7265 55.0658 55.0637 55.0638C55.401 55.0658 55.7353 55.0011 56.0475 54.8736C56.3597 54.7461 56.6437 54.5582 56.8831 54.3207Z" fill="white"/>
</svg>
