<svg width="42" height="42" viewBox="0 0 42 42" fill="none" xmlns="http://www.w3.org/2000/svg">
<circle cx="21" cy="21" r="21" fill="#EB2026"/>
<path d="M11 29V26.75H13.15V14.5C13.15 14.0875 13.2969 13.7344 13.5906 13.4406C13.8844 13.1469 14.2375 13 14.65 13H30.15V14.5H14.65V26.75H20.5V29H11ZM22.975 29C22.6988 29 22.4672 28.8875 22.2803 28.6625C22.0934 28.4375 22 28.1833 22 27.9V16.975C22 16.6988 22.0934 16.4672 22.2803 16.2803C22.4672 16.0934 22.6988 16 22.975 16H29.7688C30.0896 16 30.375 16.0875 30.625 16.2625C30.875 16.4375 31 16.675 31 16.975V27.9068C31 28.2166 30.8792 28.4762 30.6375 28.6857C30.3958 28.8952 30.1083 29 29.775 29H22.975ZM23.5 26.75H29.5V17.5H23.5V26.75Z" fill="white"/>
</svg>
