<svg width="100%" height="100%" preserveAspectRatio="none" viewBox="0 0 150 150" fill="none" xmlns="http://www.w3.org/2000/svg">
<circle cx="75" cy="75" r="75" fill="#E25B45"/>
<g clip-path="url(#clip0_994_6076)">
<path d="M66.794 74.7527L72.2732 69.2747C65.8979 66.345 58.0924 67.5003 52.8479 72.7461C46.1192 79.4736 46.1192 90.4229 52.8479 97.1528C59.5752 103.882 70.5259 103.882 77.2534 97.1528C82.4979 91.9085 83.6546 84.1017 80.7248 77.7262L75.2457 83.2053C75.7872 86.4045 74.8368 89.8075 72.3727 92.2707C68.3351 96.3096 61.7663 96.3096 57.729 92.2707C53.6914 88.2332 53.6914 81.6646 57.729 77.6281C60.193 75.1627 63.596 74.211 66.794 74.7527Z" fill="white"/>
<path d="M85.8311 72.621C91.3283 81.8902 90.098 94.0722 82.1353 102.034C72.714 111.455 57.3869 111.455 47.9668 102.034C38.5454 92.6138 38.5454 77.2852 47.9668 67.8641C55.927 59.9025 68.1104 58.6722 77.3795 64.1683L82.3789 59.1674C70.3052 51.0486 53.7504 52.3175 43.0846 62.9818C30.9721 75.093 30.9721 94.8033 43.0846 106.914C55.1972 119.028 74.9049 119.028 87.0174 106.914C97.6843 96.2489 98.9519 79.694 90.8305 67.6189L85.8311 72.621Z" fill="white"/>
<path d="M115.885 47.5876C115.627 46.9157 114.974 46.5017 114.235 46.5354L102.934 47.0655L103.465 35.7655C103.497 35.0253 103.083 34.3753 102.412 34.1149C101.744 33.8571 100.951 34.0427 100.407 34.5844L88.3469 46.6451L87.7369 59.6693L65.8125 81.5923C64.6971 81.3396 63.4798 81.6387 62.6106 82.5077C61.2618 83.8566 61.2618 86.0411 62.6106 87.3899C63.9582 88.7388 66.144 88.7388 67.4928 87.3899C68.3606 86.5208 68.6612 85.3034 68.4083 84.1868L90.3314 62.2624L103.354 61.6538L115.415 49.5915C115.958 49.0487 116.143 48.258 115.885 47.5876Z" fill="white"/>
</g>
<circle cx="75" cy="75" r="75" fill="#FFA000"/>
<g clip-path="url(#clip1_994_6076)">
<path fill-rule="evenodd" clip-rule="evenodd" d="M34 59.83V54.5L54.5 34H95.5L116 54.5V59.83L75 116L34 59.83ZM44.25 59.625L75 103.188L54.5 59.625H44.25ZM105.75 59.625H95.5L75 103.188L105.75 59.625ZM64.75 59.625L75 90.375L85.25 59.625H64.75ZM54.5 44.25L44.25 54.5H54.5L64.75 44.25H54.5ZM95.5 44.25H85.25L95.5 54.5H105.75L95.5 44.25ZM69.875 44.25L64.75 54.5H85.25L80.125 44.25H69.875Z" fill="white"/>
</g>
<defs>
<clipPath id="clip0_994_6076">
<rect width="82" height="82" fill="white" transform="translate(34 34)"/>
</clipPath>
<clipPath id="clip1_994_6076">
<rect width="82" height="82" fill="white" transform="translate(34 34)"/>
</clipPath>
</defs>
</svg>
