<svg width="21" height="21" viewBox="0 0 21 21" fill="none" xmlns="http://www.w3.org/2000/svg">
<g clip-path="url(#clip0_265_53)">
<path d="M14.4824 0.164551H12.3991C10.8053 0.164551 9.66046 0.54288 8.96471 1.29928C8.26873 2.05594 7.92106 3.1703 7.92106 4.64283V6.04644C7.92106 6.41738 7.62042 6.71802 7.24948 6.71802H6.52955C6.15861 6.71802 5.85797 7.01866 5.85797 7.3896V9.49296C5.85797 9.8639 6.15861 10.1645 6.52955 10.1645H7.24948C7.62042 10.1645 7.92106 10.4652 7.92106 10.8361V19.4929C7.92106 19.8639 8.22169 20.1645 8.59263 20.1645H11.3877C11.7587 20.1645 12.0593 19.8638 12.0593 19.4929V10.8361C12.0593 10.4652 12.36 10.1646 12.7309 10.1646H14.1425C14.5135 10.1646 14.8457 9.8655 14.8846 9.4968L15.1076 7.38579C15.1465 7.0169 14.8775 6.71802 14.5065 6.71802H12.7307C12.3597 6.71802 12.0591 6.41738 12.0591 6.04644V4.99474C12.0591 4.73595 12.0712 4.53561 12.0955 4.39391C12.1197 4.25243 12.1743 4.11295 12.2594 3.97527C12.3442 3.83785 12.4819 3.74271 12.672 3.69007C12.862 3.63747 13.115 3.61106 13.4304 3.61106H14.4821C14.853 3.61106 15.1536 3.31043 15.1536 2.93949V0.836127C15.1539 0.465187 14.8533 0.164551 14.4824 0.164551Z" fill="white"/>
</g>
<defs>
<clipPath id="clip0_265_53">
<rect width="20" height="20" fill="white" transform="translate(0.505859 0.164551)"/>
</clipPath>
</defs>
</svg>
