<svg width="48" height="48" viewBox="0 0 48 48" fill="none" xmlns="http://www.w3.org/2000/svg">
<path d="M24 33.35C21.4132 33.35 19.2081 32.4384 17.3849 30.6151C15.5616 28.7919 14.65 26.5868 14.65 24C14.65 21.4132 15.5616 19.2081 17.3849 17.3849C19.2081 15.5616 21.4132 14.65 24 14.65C26.5868 14.65 28.7919 15.5616 30.6151 17.3849C32.4384 19.2081 33.35 21.4132 33.35 24C33.35 26.5868 32.4384 28.7919 30.6151 30.6151C28.7919 32.4384 26.5868 33.35 24 33.35ZM9 42C8.2 42 7.5 41.7 6.9 41.1C6.3 40.5 6 39.8 6 39V30.4H9V39H17.6V42H9ZM30.4 42V39H39V30.4H42V39C42 39.8 41.7 40.5 41.1 41.1C40.5 41.7 39.8 42 39 42H30.4ZM6 17.6V9C6 8.2 6.3 7.5 6.9 6.9C7.5 6.3 8.2 6 9 6H17.6V9H9V17.6H6ZM39 17.6V9H30.4V6H39C39.8 6 40.5 6.3 41.1 6.9C41.7 7.5 42 8.2 42 9V17.6H39Z" fill="#4499AC"/>
</svg>
