<svg width="48" height="48" viewBox="0 0 48 48" fill="none" xmlns="http://www.w3.org/2000/svg">
<path d="M36.4007 48H0V11.5993C0 5.1932 5.1932 0 11.5993 0H48V36.4007C48 42.8068 42.8068 48 36.4007 48Z" fill="#00593F"/>
<path d="M43.2907 21.0429H31.1392L39.7316 12.4505L35.5497 8.26859L26.9573 16.861V4.70935H21.043V16.861L12.4505 8.26859L8.26852 12.4505L16.8609 21.0429H4.70947V26.9572H16.8611L8.26852 35.5495L12.4505 39.7317L21.043 31.1391V43.2905H26.9573V31.1391L35.5497 39.7317L39.7316 35.5495L31.1392 26.9572H43.2907V21.0429Z" fill="#FFA000"/>
<path d="M24 13.3931C18.3876 13.3931 13.8218 17.959 13.8218 23.5713C13.8218 29.1836 18.3876 33.7495 24 33.7495C29.6123 33.7495 34.1782 29.1836 34.1782 23.5713C34.1782 17.959 29.6123 13.3931 24 13.3931Z" fill="white"/>
<path d="M23.9999 13.3932C18.3876 13.3932 13.8218 17.959 13.8218 23.5713C13.8218 29.1837 18.3876 33.7495 23.9999 33.7495C29.6123 33.7495 34.1781 29.1837 34.1781 23.5713C34.1781 17.959 29.6123 13.3932 23.9999 13.3932ZM23.9999 39.6638C15.1265 39.6638 7.90747 32.4448 7.90747 23.5713C7.90747 14.6979 15.1265 7.47887 23.9999 7.47887C32.8734 7.47887 40.0924 14.6979 40.0924 23.5713C40.0924 32.4448 32.8734 39.6638 23.9999 39.6638Z" fill="#DB5B44"/>
<path d="M30.8425 23.5713C30.8425 27.3504 27.7789 30.4139 23.9999 30.4139C20.2208 30.4139 17.1575 27.3504 17.1575 23.5713C17.1575 19.7923 20.2208 16.7287 23.9999 16.7287C27.7789 16.7287 30.8425 19.7923 30.8425 23.5713Z" fill="#DB5B44"/>
</svg>
