<svg width="42" height="42" viewBox="0 0 42 42" fill="none" xmlns="http://www.w3.org/2000/svg">
<circle cx="21" cy="21" r="21" fill="#FFA000"/>
<g clip-path="url(#clip0_784_2135)">
<path d="M9 27V25.675C9 25.0322 9.34583 24.509 10.0375 24.1054C10.7292 23.7018 11.6365 23.5 12.7594 23.5C12.9622 23.5 13.1571 23.5042 13.3443 23.5125C13.5314 23.5208 13.7167 23.5388 13.9 23.5663C13.7667 23.8554 13.6667 24.1485 13.6 24.4454C13.5333 24.7424 13.5 25.0522 13.5 25.375V27H9ZM15 27V25.375C15 24.8417 15.1458 24.3542 15.4375 23.9125C15.7292 23.4708 16.1417 23.0833 16.675 22.75C17.2083 22.4167 17.8458 22.1667 18.5875 22C19.3292 21.8333 20.1333 21.75 21 21.75C21.8833 21.75 22.6958 21.8333 23.4375 22C24.1792 22.1667 24.8167 22.4167 25.35 22.75C25.8833 23.0833 26.2917 23.4708 26.575 23.9125C26.8583 24.3542 27 24.8417 27 25.375V27H15ZM28.5 27V25.375C28.5 25.044 28.4708 24.7321 28.4125 24.4392C28.3542 24.1464 28.2583 23.8561 28.125 23.5682C28.3083 23.5394 28.4931 23.5208 28.6793 23.5125C28.8655 23.5042 29.0557 23.5 29.25 23.5C30.375 23.5 31.2812 23.6981 31.9688 24.0942C32.6562 24.4903 33 25.0173 33 25.675V27H28.5ZM12.7392 22.75C12.2631 22.75 11.8542 22.5786 11.5125 22.2359C11.1708 21.8932 11 21.4813 11 21C11 20.5167 11.1714 20.1042 11.5141 19.7625C11.8568 19.4208 12.2687 19.25 12.75 19.25C13.2333 19.25 13.6458 19.4208 13.9875 19.7625C14.3292 20.1042 14.5 20.5203 14.5 21.0108C14.5 21.4869 14.3292 21.8958 13.9875 22.2375C13.6458 22.5792 13.2297 22.75 12.7392 22.75ZM29.2392 22.75C28.7631 22.75 28.3542 22.5786 28.0125 22.2359C27.6708 21.8932 27.5 21.4813 27.5 21C27.5 20.5167 27.6714 20.1042 28.0141 19.7625C28.3568 19.4208 28.7688 19.25 29.25 19.25C29.7333 19.25 30.1458 19.4208 30.4875 19.7625C30.8292 20.1042 31 20.5203 31 21.0108C31 21.4869 30.8292 21.8958 30.4875 22.2375C30.1458 22.5792 29.7297 22.75 29.2392 22.75ZM21 21C20.1667 21 19.4583 20.7083 18.875 20.125C18.2917 19.5417 18 18.8333 18 18C18 17.15 18.2917 16.4375 18.875 15.8625C19.4583 15.2875 20.1667 15 21 15C21.85 15 22.5625 15.2875 23.1375 15.8625C23.7125 16.4375 24 17.15 24 18C24 18.8333 23.7125 19.5417 23.1375 20.125C22.5625 20.7083 21.85 21 21 21Z" fill="white"/>
</g>
<defs>
<clipPath id="clip0_784_2135">
<rect width="24" height="24" fill="white" transform="translate(9 9)"/>
</clipPath>
</defs>
</svg>
