<svg width="48" height="48" viewBox="0 0 48 48" fill="none" xmlns="http://www.w3.org/2000/svg">
<path d="M36.4006 48H0V11.5993C0 5.19322 5.19318 2.71035e-05 11.5992 2.71035e-05H47.9998V36.4007C47.9998 42.8068 42.8066 48 36.4006 48Z" fill="#008080"/>
<mask id="mask0_744_1905" style="mask-type:luminance" maskUnits="userSpaceOnUse" x="0" y="0" width="48" height="48">
<path d="M11.5994 2.41537e-05C5.19338 2.41537e-05 0 5.19322 0 11.5993V48H36.4006C42.8066 48 48 42.8068 48 36.4007V2.41537e-05H11.5994Z" fill="white"/>
</mask>
<g mask="url(#mask0_744_1905)">
<path d="M17.6021 15.5116H32.8332V-11.8123H17.6021V15.5116Z" fill="#D6E6D4"/>
<path d="M25.8079 18.4229C24.5238 18.4184 23.4793 19.4558 23.4749 20.7397L23.4321 33.1126C23.4279 34.3965 24.4651 35.441 25.7491 35.4454C27.0331 35.4499 28.0774 34.4125 28.0819 33.1287L28.1246 20.7557C28.1291 19.4718 27.0917 18.4273 25.8079 18.4229Z" fill="#D6E6D4"/>
<path d="M21.1581 18.4069C19.8741 18.4024 18.8298 19.4398 18.8253 20.7237L18.7826 33.0966C18.7782 34.3805 19.8155 35.425 21.0994 35.4294C22.3834 35.4339 23.4277 34.3965 23.4322 33.1127L23.4749 20.7397C23.4793 19.4559 22.4422 18.4113 21.1581 18.4069Z" fill="#D6E6D4"/>
<path d="M16.5152 16.4522C15.2312 16.4477 14.1868 17.4851 14.1824 18.7689L14.1397 31.1419C14.1352 32.4258 15.1726 33.4703 16.4564 33.4747C17.7405 33.4792 18.785 32.4418 18.7894 31.1578L18.8321 18.785C18.8364 17.5011 17.7992 16.4566 16.5152 16.4522Z" fill="#D6E6D4"/>
<path d="M30.464 16.5003C29.18 16.4958 28.1357 17.5332 28.1312 18.817L28.0885 31.1898C28.0841 32.4739 29.1214 33.5184 30.4053 33.5228C31.6893 33.5273 32.7338 32.4899 32.7383 31.2059L32.781 18.8331C32.7852 17.5492 31.7481 16.5047 30.464 16.5003Z" fill="#D6E6D4"/>
<path d="M26.3812 3.81681L24.2204 3.80946C23.8131 3.80792 23.4093 3.83131 23.0124 3.87964C18.0655 4.45748 14.2184 8.65236 14.2008 13.7601L14.1743 21.4748C14.1741 21.4926 14.1848 21.4997 14.1954 21.4997L32.7453 21.5637C32.7631 21.5637 32.7702 21.5568 32.7702 21.539L32.7857 17.0829C32.7857 17.0794 32.7892 17.076 32.7892 17.076C32.7963 17.0547 32.8282 17.0549 32.8352 17.0761L34.0059 20.647C34.3881 21.8102 35.5827 22.5794 36.7737 22.3001C38.1208 21.9824 38.8801 20.593 38.4595 19.3092L36.139 12.2383L35.6345 10.6283C34.5695 7.23493 31.7655 4.75287 28.3817 4.02908C27.734 3.88873 27.0648 3.81913 26.3812 3.81681Z" fill="#D6E6D4"/>
<path d="M27.9474 20.7549L28.3016 20.7563L28.2699 30.0067L27.9155 30.0054L27.9474 20.7549Z" fill="#00593F"/>
<path d="M23.2978 20.739L23.6519 20.7403L23.62 29.9904L23.2659 29.989L23.2978 20.739Z" fill="#00593F"/>
<path d="M18.6482 20.7231L19.0024 20.7244L18.9705 29.9745L18.6163 29.9731L18.6482 20.7231Z" fill="#00593F"/>
<path d="M16.6838 20.5391L30.2671 20.5861L30.2658 20.9404L16.6825 20.8933L16.6838 20.5391Z" fill="#00593F"/>
<path d="M23.4689 9.05795H23.823C23.823 12.8167 26.5117 15.98 30.2162 16.5795L30.1595 16.9288C26.2827 16.3017 23.4689 12.9913 23.4689 9.05795Z" fill="#00593F"/>
<path d="M20.1045 37.7333L26.7455 41.0925L28.2406 41.8741C29.8345 42.7065 31.5775 43.0564 33.2874 42.9594L46.0891 55.7611L56.8592 44.9912L44.0525 32.1844C44.2304 29.4305 43.2804 26.6169 41.1819 24.5037L37.6613 20.9586C37.6582 20.9555 37.6563 20.9518 37.6532 20.9488L28.9346 12.1698C28.0297 11.2587 26.5578 11.2535 25.6466 12.1584C24.7357 13.0632 24.7307 14.5351 25.6352 15.446L24.2692 14.0706C23.3645 13.1596 21.8923 13.1544 20.9814 14.0592C20.0703 14.9639 20.0655 16.436 20.9702 17.347C20.0655 16.436 18.5933 16.431 17.6822 17.3356C16.7713 18.2405 16.7663 19.7127 17.671 20.6236L25.8316 28.8407L19.0372 21.9993C18.1323 21.0881 16.6603 21.0829 15.7492 21.9877C14.8383 22.8926 14.833 24.3645 15.738 25.2757L24.4566 34.0546C24.46 34.0581 24.4639 34.06 24.4672 34.0633L25.6909 35.2957C25.6934 35.298 25.6934 35.3031 25.6934 35.3031C25.7033 35.3232 25.6807 35.3458 25.6607 35.3355L22.308 33.6384C21.2151 33.0859 19.8265 33.3869 19.1818 34.4265C18.4539 35.6037 18.8994 37.123 20.1045 37.7333Z" fill="#F4A119"/>
<path d="M26.5156 29.278L26.2641 29.5276L19.7457 22.9639L19.9972 22.7146L26.5156 29.278Z" fill="#00593F"/>
<path d="M29.8146 26.0015L29.563 26.2511L23.045 19.6876L23.2964 19.4381L29.8146 26.0015Z" fill="#00593F"/>
<path d="M33.1136 22.725L32.8621 22.9746L26.3441 16.4112L26.5954 16.1616L33.1136 22.725Z" fill="#00593F"/>
<path d="M10.8864 17.7657L7.52724 24.4066L6.74565 25.9018C5.91321 27.4957 5.5633 29.2387 5.66034 30.9486L-7.14136 43.7504L3.62854 54.5205L16.4353 41.7137C19.1891 41.8916 22.0027 40.9416 24.1159 38.8431L27.661 35.3225C27.6641 35.3194 27.6678 35.3175 27.6709 35.3144L36.4498 26.5958C37.3609 25.6909 37.3661 24.2189 36.4612 23.3078C35.5564 22.3969 34.0845 22.3918 33.1736 23.2964L34.549 21.9304C35.46 21.0256 35.4652 19.5535 34.5604 18.6426C33.6557 17.7314 32.1836 17.7266 31.2726 18.6314C32.1836 17.7266 32.1886 16.2545 31.284 15.3433C30.3791 14.4324 28.907 14.4274 27.996 15.3321L19.7789 23.4928L26.6204 16.6983C27.5315 15.7934 27.5367 14.3214 26.632 13.4103C25.727 12.4994 24.2551 12.4942 23.344 13.3991L14.5651 22.1177C14.5616 22.1212 14.5597 22.1251 14.5564 22.1283L13.324 23.3521C13.3216 23.3546 13.3166 23.3546 13.3166 23.3546C13.2965 23.3644 13.2739 23.3418 13.2841 23.3219L14.9813 19.9691C15.5338 18.8763 15.2328 17.4877 14.1931 16.8429C13.016 16.1151 11.4967 16.5605 10.8864 17.7657Z" fill="#DB5B44"/>
<path d="M19.3416 24.1768L19.092 23.9252L25.6557 17.4068L25.9051 17.6583L19.3416 24.1768Z" fill="#00593F"/>
<path d="M22.6181 27.4757L22.3685 27.2242L28.932 20.7062L29.1815 20.9575L22.6181 27.4757Z" fill="#00593F"/>
<path d="M25.8946 30.7748L25.645 30.5233L32.2085 24.0052L32.458 24.2566L25.8946 30.7748Z" fill="#00593F"/>
</g>
</svg>
