<svg width="17" height="17" viewBox="0 0 17 17" fill="none" xmlns="http://www.w3.org/2000/svg">
<g id="home_FILL1_wght400_GRAD0_opsz48 1">
<path id="Vector" d="M2.83301 13.8125V6.90625C2.83301 6.73802 2.87064 6.57865 2.9459 6.42812C3.02116 6.2776 3.1252 6.15365 3.25801 6.05625L7.86217 2.60313C8.04729 2.46146 8.25884 2.39062 8.49684 2.39062C8.73484 2.39062 8.94829 2.46146 9.13717 2.60313L13.7413 6.05625C13.8742 6.15365 13.9782 6.2776 14.0535 6.42812C14.1287 6.57865 14.1663 6.73802 14.1663 6.90625V13.8125C14.1663 14.1047 14.0623 14.3548 13.8542 14.5629C13.6462 14.771 13.396 14.875 13.1038 14.875H10.4476C10.2971 14.875 10.1709 14.8241 10.0691 14.7223C9.96725 14.6204 9.91634 14.4943 9.91634 14.3438V10.4479C9.91634 10.2974 9.86543 10.1712 9.76361 10.0694C9.66178 9.96758 9.53561 9.91667 9.38509 9.91667H7.61426C7.46374 9.91667 7.33756 9.96758 7.23574 10.0694C7.13392 10.1712 7.08301 10.2974 7.08301 10.4479V14.3438C7.08301 14.4943 7.0321 14.6204 6.93027 14.7223C6.82845 14.8241 6.70228 14.875 6.55176 14.875H3.89551C3.60332 14.875 3.35319 14.771 3.14512 14.5629C2.93704 14.3548 2.83301 14.1047 2.83301 13.8125Z" fill="#FE1C22"/>
</g>
</svg>
