<svg width="55" height="55" viewBox="0 0 55 55" fill="none" xmlns="http://www.w3.org/2000/svg">
<path d="M10.3125 48.125C9.39583 48.125 8.59375 47.7812 7.90625 47.0938C7.21875 46.4062 6.875 45.6042 6.875 44.6875V10.3125C6.875 9.39583 7.21875 8.59375 7.90625 7.90625C8.59375 7.21875 9.39583 6.875 10.3125 6.875H44.6875C45.6042 6.875 46.4062 7.21875 47.0938 7.90625C47.7812 8.59375 48.125 9.39583 48.125 10.3125V44.6875C48.125 45.6042 47.7812 46.4062 47.0938 47.0938C46.4062 47.7812 45.6042 48.125 44.6875 48.125H10.3125ZM10.3125 44.6875H44.6875V10.3125H10.3125V44.6875ZM13.5208 39.1302H41.5365L33.1146 27.901L25.5521 37.6979L20.224 30.4219L13.5208 39.1302Z" fill="#888383"/>
</svg>
