<svg width="25" height="25" viewBox="0 0 25 25" fill="none" xmlns="http://www.w3.org/2000/svg">
<path d="M16.6959 2.16455H8.31586C4.67586 2.16455 2.50586 4.33455 2.50586 7.97455V16.3445C2.50586 19.9945 4.67586 22.1645 8.31586 22.1645H16.6859C20.3259 22.1645 22.4959 19.9945 22.4959 16.3545V7.97455C22.5059 4.33455 20.3359 2.16455 16.6959 2.16455ZM12.5059 16.0445C10.3659 16.0445 8.62586 14.3045 8.62586 12.1645C8.62586 10.0245 10.3659 8.28455 12.5059 8.28455C14.6459 8.28455 16.3859 10.0245 16.3859 12.1645C16.3859 14.3045 14.6459 16.0445 12.5059 16.0445ZM18.4259 7.04455C18.3759 7.16455 18.3059 7.27455 18.2159 7.37455C18.1159 7.46455 18.0059 7.53455 17.8859 7.58455C17.7659 7.63455 17.6359 7.66455 17.5059 7.66455C17.2359 7.66455 16.9859 7.56455 16.7959 7.37455C16.7059 7.27455 16.6359 7.16455 16.5859 7.04455C16.5359 6.92455 16.5059 6.79455 16.5059 6.66455C16.5059 6.53455 16.5359 6.40455 16.5859 6.28455C16.6359 6.15455 16.7059 6.05455 16.7959 5.95455C17.0259 5.72455 17.3759 5.61455 17.6959 5.68455C17.7659 5.69455 17.8259 5.71455 17.8859 5.74455C17.9459 5.76455 18.0059 5.79455 18.0659 5.83455C18.1159 5.86455 18.1659 5.91455 18.2159 5.95455C18.3059 6.05455 18.3759 6.15455 18.4259 6.28455C18.4759 6.40455 18.5059 6.53455 18.5059 6.66455C18.5059 6.79455 18.4759 6.92455 18.4259 7.04455Z" fill="white"/>
</svg>
