<svg width="42" height="42" viewBox="0 0 42 42" fill="none" xmlns="http://www.w3.org/2000/svg">
<circle cx="21" cy="21" r="21" fill="#008080"/>
<path d="M14.15 27.85C13.4667 27.05 12.9375 26.1542 12.5625 25.1625C12.1875 24.1708 12 23.1167 12 22C12 19.5 12.875 17.3792 14.625 15.6375C16.375 13.8958 18.5 13.025 21 13.025C21.1667 13.025 21.3375 13.0292 21.5125 13.0375C21.6875 13.0458 21.8417 13.0583 21.975 13.075L19.95 11.05L21 10L25 14L21 18L19.925 16.925L22.225 14.625C22.0417 14.5917 21.825 14.5667 21.575 14.55C21.325 14.5333 21.1333 14.525 21 14.525C18.9167 14.525 17.1458 15.25 15.6875 16.7C14.2292 18.15 13.5 19.9167 13.5 22C13.5 22.85 13.6417 23.7 13.925 24.55C14.2083 25.4 14.6417 26.1417 15.225 26.775L14.15 27.85ZM20.05 27.75C20.05 27.4 19.925 27.0417 19.675 26.675C19.425 26.3083 19.1542 25.9333 18.8625 25.55C18.5708 25.1667 18.3 24.7625 18.05 24.3375C17.8 23.9125 17.675 23.4667 17.675 23C17.675 22.0833 18 21.3 18.65 20.65C19.3 20 20.0833 19.675 21 19.675C21.9167 19.675 22.7 20 23.35 20.65C24 21.3 24.325 22.0833 24.325 23C24.325 23.4667 24.2 23.9125 23.95 24.3375C23.7 24.7625 23.4292 25.1667 23.1375 25.55C22.8458 25.9333 22.575 26.3083 22.325 26.675C22.075 27.0417 21.95 27.4 21.95 27.75H20.05ZM20 30V28.75H22V30H20ZM27.85 27.85L26.8 26.8C27.3 26.2 27.7083 25.4917 28.025 24.675C28.3417 23.8583 28.5 22.9667 28.5 22C28.5 20.9 28.2708 19.8542 27.8125 18.8625C27.3542 17.8708 26.6667 17 25.75 16.25L26.85 15.15C27.8167 15.9833 28.5833 16.9875 29.15 18.1625C29.7167 19.3375 30 20.6167 30 22C30 23.1167 29.8125 24.1708 29.4375 25.1625C29.0625 26.1542 28.5333 27.05 27.85 27.85Z" fill="white"/>
</svg>
