<svg width="48" height="48" viewBox="0 0 48 48" fill="none" xmlns="http://www.w3.org/2000/svg">
<path d="M22.5 27.5H25.5V14.5H22.5V27.5ZM28.5 24.5H31.5V16.5H28.5V24.5ZM16.5 23.5H19.5V16.5H16.5V23.5ZM12 44V35.4C10.1 33.6667 8.625 31.6417 7.575 29.325C6.525 27.0083 6 24.5667 6 22C6 17 7.75 12.75 11.25 9.25C14.75 5.75 19 4 24 4C28.1667 4 31.8583 5.225 35.075 7.675C38.2917 10.125 40.3833 13.3167 41.35 17.25L44.1 28.15C44.2333 28.6167 44.15 29.0417 43.85 29.425C43.55 29.8083 43.15 30 42.65 30H38V37C38 37.825 37.7063 38.5313 37.1188 39.1188C36.5313 39.7063 35.825 40 35 40H30V44H12Z" fill="#F8A519"/>
</svg>
