<svg width="25" height="25" viewBox="0 0 25 25" fill="none" xmlns="http://www.w3.org/2000/svg">
<g clip-path="url(#clip0_265_46)">
<path fill-rule="evenodd" clip-rule="evenodd" d="M10.092 15.268V8.53381C12.4826 9.65872 14.3342 10.7454 16.524 11.917C14.7179 12.9187 12.4826 14.0425 10.092 15.268ZM23.4151 5.18459C23.0027 4.64128 22.2998 4.21836 21.5516 4.07834C19.3522 3.66068 5.63104 3.65949 3.43284 4.07834C2.83279 4.19083 2.29846 4.46273 1.83946 4.88518C-0.0945756 6.68026 0.511459 16.3067 0.977636 17.866C1.17367 18.541 1.42709 19.0278 1.74624 19.3473C2.15743 19.7697 2.72042 20.0606 3.36709 20.191C5.178 20.5656 14.5075 20.775 21.5133 20.2473C22.1588 20.1348 22.7301 19.8346 23.1808 19.3942C24.969 17.6063 24.8471 7.43921 23.4151 5.18459Z" fill="white"/>
</g>
<defs>
<clipPath id="clip0_265_46">
<rect width="24" height="24" fill="white" transform="translate(0.505859 0.164551)"/>
</clipPath>
</defs>
</svg>
